<?xml version="1.0" encoding="UTF-8" standalone="no"?>
<!-- Uploaded to: SVG Repo, www.svgrepo.com, Generator: SVG Repo Mixer Tools -->

<svg
   fill="#000000"
   version="1.1"
   id="Layer_1"
   width="800px"
   height="800px"
   viewBox="0 0 24 24"
   enable-background="new 0 0 24 24"
   xml:space="preserve"
   sodipodi:docname="brightness-20.svg"
   inkscape:version="1.3.2 (091e20ef0f, 2023-11-25, custom)"
   xmlns:inkscape="http://www.inkscape.org/namespaces/inkscape"
   xmlns:sodipodi="http://sodipodi.sourceforge.net/DTD/sodipodi-0.dtd"
   xmlns="http://www.w3.org/2000/svg"
   xmlns:svg="http://www.w3.org/2000/svg"
   xmlns:ns="&amp;#38;ns_sfw;"><defs
   id="defs19" /><sodipodi:namedview
   id="namedview19"
   pagecolor="#ffffff"
   bordercolor="#000000"
   borderopacity="0.25"
   inkscape:showpageshadow="2"
   inkscape:pageopacity="0.0"
   inkscape:pagecheckerboard="0"
   inkscape:deskcolor="#d1d1d1"
   inkscape:zoom="0.47960938"
   inkscape:cx="303.37188"
   inkscape:cy="359.66769"
   inkscape:window-width="1920"
   inkscape:window-height="1080"
   inkscape:window-x="0"
   inkscape:window-y="0"
   inkscape:window-maximized="1"
   inkscape:current-layer="g19" />
<metadata
   id="metadata1">
	<ns:sfw>
		<ns:slices>

</ns:slices>
		<ns:sliceSourceBounds
   width="505"
   height="984"
   bottomLeftOrigin="true"
   x="0"
   y="-984">

</ns:sliceSourceBounds>
	</ns:sfw>
</metadata>
<g
   id="g19">
	<g
   id="g2"
   style="fill:#54546d;fill-opacity:1">
		<g
   id="g1"
   style="fill:#54546d;fill-opacity:1">
			<path
   d="M12,5c-0.6,0-1-0.4-1-1V1c0-0.6,0.4-1,1-1s1,0.4,1,1v3C13,4.6,12.6,5,12,5z"
   id="path1"
   style="fill:#54546d;fill-opacity:1" />
		</g>
	</g>
	<g
   id="g4"
   style="fill:#7fb4ca;fill-opacity:1">
		<g
   id="g3"
   style="fill:#7fb4ca;fill-opacity:1">
			<path
   d="M12,24c-0.6,0-1-0.4-1-1v-3c0-0.6,0.4-1,1-1s1,0.4,1,1v3C13,23.6,12.6,24,12,24z"
   id="path2"
   style="fill:#7fb4ca;fill-opacity:1" />
		</g>
	</g>
	<g
   id="g6"
   style="fill:#54546d;fill-opacity:1">
		<g
   id="g5"
   style="fill:#54546d;fill-opacity:1">
			<path
   d="M23,13h-3c-0.6,0-1-0.4-1-1s0.4-1,1-1h3c0.6,0,1,0.4,1,1S23.6,13,23,13z"
   id="path4"
   style="fill:#54546d;fill-opacity:1" />
		</g>
	</g>
	<g
   id="g8"
   style="fill:#54546d;fill-opacity:1">
		<g
   id="g7"
   style="fill:#54546d;fill-opacity:1">
			<path
   d="M4,13H1c-0.6,0-1-0.4-1-1s0.4-1,1-1h3c0.6,0,1,0.4,1,1S4.6,13,4,13z"
   id="path6"
   style="fill:#54546d;fill-opacity:1" />
		</g>
	</g>
	<g
   id="g10"
   style="fill:#54546d;fill-opacity:1">
		<g
   id="g9"
   style="fill:#54546d;fill-opacity:1">
			<path
   d="M17.7,7.3c-0.3,0-0.5-0.1-0.7-0.3c-0.4-0.4-0.4-1,0-1.4l2.1-2.1c0.4-0.4,1-0.4,1.4,0c0.4,0.4,0.4,1,0,1.4l-2.1,2.1     C18.2,7.2,17.9,7.3,17.7,7.3z"
   id="path8"
   style="fill:#54546d;fill-opacity:1" />
		</g>
	</g>
	<g
   id="g12"
   style="fill:#7fb4ca;fill-opacity:1">
		<g
   id="g11"
   style="fill:#7fb4ca;fill-opacity:1">
			<path
   d="M4.2,20.8c-0.3,0-0.5-0.1-0.7-0.3c-0.4-0.4-0.4-1,0-1.4l2.1-2.1c0.4-0.4,1-0.4,1.4,0c0.4,0.4,0.4,1,0,1.4l-2.1,2.1     C4.7,20.7,4.5,20.8,4.2,20.8z"
   id="path10"
   style="fill:#7fb4ca;fill-opacity:1" />
		</g>
	</g>
	<g
   id="g14"
   style="fill:#54546d;fill-opacity:1">
		<g
   id="g13"
   style="fill:#54546d;fill-opacity:1">
			<path
   d="M19.8,20.8c-0.3,0-0.5-0.1-0.7-0.3L17,18.4c-0.4-0.4-0.4-1,0-1.4c0.4-0.4,1-0.4,1.4,0l2.1,2.1c0.4,0.4,0.4,1,0,1.4     C20.3,20.7,20,20.8,19.8,20.8z"
   id="path12"
   style="fill:#54546d;fill-opacity:1" />
		</g>
	</g>
	<g
   id="g16"
   style="fill:#54546d;fill-opacity:1">
		<g
   id="g15"
   style="fill:#54546d;fill-opacity:1">
			<path
   d="M6.3,7.3c-0.3,0-0.5-0.1-0.7-0.3L3.5,4.9c-0.4-0.4-0.4-1,0-1.4c0.4-0.4,1-0.4,1.4,0L7,5.6c0.4,0.4,0.4,1,0,1.4     C6.9,7.2,6.6,7.3,6.3,7.3z"
   id="path14"
   style="fill:#54546d;fill-opacity:1" />
		</g>
	</g>
	<g
   id="g18"
   style="fill:#7fb4ca;fill-opacity:1">
		<g
   id="g17"
   style="fill:#7fb4ca;fill-opacity:1">
			<path
   d="M12,17c-2.8,0-5-2.2-5-5s2.2-5,5-5s5,2.2,5,5S14.8,17,12,17z M12,9c-1.7,0-3,1.3-3,3s1.3,3,3,3s3-1.3,3-3S13.7,9,12,9z"
   id="path16"
   style="fill:#7fb4ca;fill-opacity:1" />
		</g>
	</g>
</g>
</svg>
