<?xml version="1.0" encoding="UTF-8" standalone="no"?>
<!-- Uploaded to: SVG Repo, www.svgrepo.com, Generator: SVG Repo Mixer Tools -->

<svg
   width="800px"
   height="800px"
   viewBox="0 0 24 24"
   fill="none"
   version="1.1"
   id="svg3"
   sodipodi:docname="volume-over.svg"
   inkscape:version="1.3.2 (091e20ef0f, 2023-11-25, custom)"
   xmlns:inkscape="http://www.inkscape.org/namespaces/inkscape"
   xmlns:sodipodi="http://sodipodi.sourceforge.net/DTD/sodipodi-0.dtd"
   xmlns:xlink="http://www.w3.org/1999/xlink"
   xmlns="http://www.w3.org/2000/svg"
   xmlns:svg="http://www.w3.org/2000/svg">
  <defs
     id="defs3">
    <linearGradient
       id="linearGradient3"
       inkscape:collect="always">
      <stop
         style="stop-color:#ffa066;stop-opacity:1;"
         offset="0"
         id="stop3" />
      <stop
         style="stop-color:#ff5d62;stop-opacity:1;"
         offset="1"
         id="stop6" />
    </linearGradient>
    <linearGradient
       id="linearGradient1"
       inkscape:collect="always">
      <stop
         style="stop-color:#ffa066;stop-opacity:1;"
         offset="0"
         id="stop1" />
      <stop
         style="stop-color:#ff5d62;stop-opacity:1;"
         offset="1"
         id="stop2" />
    </linearGradient>
    <linearGradient
       id="linearGradient4"
       inkscape:collect="always">
      <stop
         style="stop-color:#ff5d62;stop-opacity:1;"
         offset="0"
         id="stop5" />
      <stop
         style="stop-color:#ffa066;stop-opacity:1;"
         offset="1"
         id="stop4" />
    </linearGradient>
    <linearGradient
       inkscape:collect="always"
       xlink:href="#linearGradient1"
       id="linearGradient2"
       x1="17.402307"
       y1="12.000347"
       x2="19.2415"
       y2="12.000347"
       gradientUnits="userSpaceOnUse" />
    <linearGradient
       inkscape:collect="always"
       xlink:href="#linearGradient3"
       id="linearGradient6"
       x1="18.952848"
       y1="12.00709"
       x2="22"
       y2="12.00709"
       gradientUnits="userSpaceOnUse" />
    <linearGradient
       inkscape:collect="always"
       xlink:href="#linearGradient4"
       id="linearGradient7"
       x1="2"
       y1="11.999997"
       x2="15.7931"
       y2="11.999997"
       gradientUnits="userSpaceOnUse" />
  </defs>
  <sodipodi:namedview
     id="namedview3"
     pagecolor="#ffffff"
     bordercolor="#000000"
     borderopacity="0.25"
     inkscape:showpageshadow="2"
     inkscape:pageopacity="0.0"
     inkscape:pagecheckerboard="0"
     inkscape:deskcolor="#d1d1d1"
     inkscape:zoom="0.75710903"
     inkscape:cx="867.11421"
     inkscape:cy="410.77307"
     inkscape:window-width="1920"
     inkscape:window-height="1080"
     inkscape:window-x="0"
     inkscape:window-y="0"
     inkscape:window-maximized="1"
     inkscape:current-layer="svg3" />
  <path
     d="M2.00299 11.7155C2.04033 9.87326 2.059 8.95215 2.67093 8.16363C2.78262 8.0197 2.9465 7.8487 3.08385 7.73274C3.83639 7.09741 4.82995 7.09741 6.81706 7.09741C7.527 7.09741 7.88197 7.09741 8.22035 7.00452C8.29067 6.98522 8.36024 6.96296 8.4289 6.93781C8.75936 6.81674 9.05574 6.60837 9.64851 6.19161C11.9872 4.54738 13.1565 3.72527 14.138 4.08241C14.3261 4.15088 14.5083 4.24972 14.671 4.37162C15.5194 5.00744 15.5839 6.48675 15.7128 9.44537C15.7606 10.5409 15.7931 11.4785 15.7931 12C15.7931 12.5215 15.7606 13.4591 15.7128 14.5546C15.5839 17.5132 15.5194 18.9926 14.671 19.6284C14.5083 19.7503 14.3261 19.8491 14.138 19.9176C13.1565 20.2747 11.9872 19.4526 9.64851 17.8084C9.05574 17.3916 8.75936 17.1833 8.4289 17.0622C8.36024 17.037 8.29067 17.0148 8.22035 16.9955C7.88197 16.9026 7.527 16.9026 6.81706 16.9026C4.82995 16.9026 3.83639 16.9026 3.08385 16.2673C2.9465 16.1513 2.78262 15.9803 2.67093 15.8364C2.059 15.0478 2.04033 14.1267 2.00299 12.2845C2.00103 12.1878 2 12.0928 2 12C2 11.9072 2.00103 11.8122 2.00299 11.7155Z"
     fill="#1C274C"
     id="path1"
     style="fill:url(#linearGradient7)" />
  <path
     fill-rule="evenodd"
     clip-rule="evenodd"
     d="M 19.267027,5.576108 C 19.559627,5.316098 20.217,5.33434 20.4608,5.64635 L 19.931,6.11713 c 0.5298,-0.47078 0.5296,-0.47111 0.5298,-0.47078 l 0.0011,0.00135 0.0012,0.00151 0.0027,0.00354 0.0069,0.00909 c 0.0052,0.00696 0.0117,0.01572 0.0194,0.0263 0.0154,0.02115 0.0354,0.04958 0.0594,0.08544 0.048,0.07171 0.112,0.17309 0.1864,0.30531 0.1489,0.26456 0.3391,0.65203 0.5265,1.17149 C 21.6397,8.29107 22,9.85136 22,12.0002 c 0,2.1489 -0.3603,3.7092 -0.7356,4.7499 -0.1874,0.5194 -0.3776,0.9069 -0.5265,1.1715 -0.0744,0.1322 -0.1384,0.2336 -0.1864,0.3053 -0.024,0.0358 -0.044,0.0643 -0.0594,0.0854 -0.0077,0.0106 -0.0142,0.0194 -0.0194,0.0263 l -0.0069,0.0091 -0.0027,0.0036 -0.0012,0.0015 c -3e-4,3e-4 -0.0011,0.0013 -0.5309,-0.4695 l 0.5298,0.4708 c -0.2438,0.312 -0.6787,0.3542 -0.9713,0.0942 -0.2912,-0.2588 -0.3317,-0.7193 -0.0918,-1.0313 6e-4,-7e-4 0.0017,-0.0022 0.0032,-0.0043 0.0049,-0.0067 0.0145,-0.0202 0.0282,-0.0407 0.0274,-0.0409 0.0712,-0.1095 0.1261,-0.2071 0.1097,-0.1951 0.2643,-0.5062 0.4218,-0.9428 0.3143,-0.8713 0.6437,-2.2526 0.6437,-4.2219 0,-1.9693 -0.3294,-3.35052 -0.6437,-4.22184 C 19.8195,7.34181 19.6649,7.03066 19.5552,6.8356 19.5003,6.73802 19.4565,6.66934 19.4291,6.62845 19.4154,6.608 19.4058,6.59449 19.4009,6.58778 19.3994,6.58561 19.3983,6.58416 19.3977,6.5834 c 0,0 0.508784,-1.4808159 0,0 0,0 -1.000918,-1.4214473 0,0 z"
     fill="#1C274C"
     id="path2"
     style="fill:url(#linearGradient6);fill-opacity:1"
     sodipodi:nodetypes="ccccccccccccscsccccccccccccccsccsccccc" />
  <path
     fill-rule="evenodd"
     clip-rule="evenodd"
     d="M17.7571 8.41595C18.0901 8.21871 18.51 8.34663 18.6949 8.70166L18.0921 9.0588C18.6949 8.70166 18.6948 8.70134 18.6949 8.70166L18.6956 8.70295L18.6963 8.70432L18.6978 8.7073L18.7014 8.71428L18.7102 8.73227C18.7169 8.74607 18.7251 8.76348 18.7345 8.78457C18.7533 8.82676 18.7772 8.88363 18.8042 8.95574C18.8584 9.10004 18.9251 9.3049 18.99 9.57476C19.1199 10.115 19.2415 10.9119 19.2415 12.0003C19.2415 13.0888 19.1199 13.8857 18.99 14.4259C18.9251 14.6958 18.8584 14.9007 18.8042 15.045C18.7772 15.1171 18.7533 15.1739 18.7345 15.2161C18.7251 15.2372 18.7169 15.2546 18.7102 15.2684L18.7014 15.2864L18.6978 15.2934L18.6963 15.2964L18.6956 15.2978C18.6954 15.2981 18.6949 15.299 18.0921 14.9419L18.6949 15.299C18.51 15.6541 18.0901 15.782 17.7571 15.5847C17.427 15.3892 17.3063 14.9474 17.4846 14.5938L17.4892 14.5838C17.4955 14.5697 17.5075 14.5415 17.5236 14.4987C17.5557 14.4132 17.6039 14.2688 17.6539 14.0606C17.7539 13.6448 17.8622 12.9709 17.8622 12.0003C17.8622 11.0298 17.7539 10.3559 17.6539 9.94007C17.6039 9.73193 17.5557 9.58748 17.5236 9.50197C17.5075 9.45918 17.4955 9.43102 17.4892 9.41691L17.4846 9.40687C17.3063 9.05332 17.427 8.61152 17.7571 8.41595Z"
     fill="#1C274C"
     id="path3"
     style="fill:url(#linearGradient2);fill-opacity:1" />
</svg>
