<?xml version="1.0" encoding="UTF-8" standalone="no"?>
<!-- Uploaded to: SVG Repo, www.svgrepo.com, Generator: SVG Repo Mixer Tools -->

<svg
   width="800px"
   height="800px"
   viewBox="0 0 24 24"
   fill="none"
   version="1.1"
   id="svg1"
   sodipodi:docname="volume-low.svg"
   inkscape:version="1.3.2 (091e20ef0f, 2023-11-25, custom)"
   xmlns:inkscape="http://www.inkscape.org/namespaces/inkscape"
   xmlns:sodipodi="http://sodipodi.sourceforge.net/DTD/sodipodi-0.dtd"
   xmlns:xlink="http://www.w3.org/1999/xlink"
   xmlns="http://www.w3.org/2000/svg"
   xmlns:svg="http://www.w3.org/2000/svg">
  <defs
     id="defs1">
    <linearGradient
       id="linearGradient1"
       inkscape:collect="always">
      <stop
         style="stop-color:#7fb4ca;stop-opacity:1;"
         offset="0"
         id="stop1" />
      <stop
         style="stop-color:#a3d4d5;stop-opacity:1;"
         offset="1"
         id="stop2" />
    </linearGradient>
    <radialGradient
       inkscape:collect="always"
       xlink:href="#linearGradient1"
       id="radialGradient2"
       cx="12"
       cy="11.999997"
       fx="12"
       fy="11.999997"
       r="7"
       gradientTransform="matrix(1,0,0,1.1428561,0,-1.7142734)"
       gradientUnits="userSpaceOnUse" />
  </defs>
  <sodipodi:namedview
     id="namedview1"
     pagecolor="#ffffff"
     bordercolor="#000000"
     borderopacity="0.25"
     inkscape:showpageshadow="2"
     inkscape:pageopacity="0.0"
     inkscape:pagecheckerboard="0"
     inkscape:deskcolor="#d1d1d1"
     inkscape:zoom="1.00875"
     inkscape:cx="400"
     inkscape:cy="399.50434"
     inkscape:window-width="1920"
     inkscape:window-height="1080"
     inkscape:window-x="0"
     inkscape:window-y="0"
     inkscape:window-maximized="1"
     inkscape:current-layer="svg1" />
  <path
     d="M5.00304 11.7155C5.04093 9.87326 5.05988 8.95215 5.68099 8.16363C5.79436 8.0197 5.9607 7.8487 6.10011 7.73274C6.86393 7.09741 7.8724 7.09741 9.88932 7.09741C10.6099 7.09741 10.9702 7.09741 11.3137 7.00452C11.385 6.98522 11.4556 6.96296 11.5253 6.93781C11.8608 6.81674 12.1616 6.60837 12.7632 6.19161C15.137 4.54738 16.3239 3.72527 17.3201 4.08241C17.5111 4.15088 17.6959 4.24972 17.8611 4.37162C18.7222 5.00744 18.7877 6.48675 18.9185 9.44538C18.967 10.5409 19 11.4785 19 12C19 12.5215 18.967 13.4591 18.9185 14.5546C18.7877 17.5132 18.7222 18.9926 17.8611 19.6284C17.6959 19.7503 17.5111 19.8491 17.3201 19.9176C16.3239 20.2747 15.137 19.4526 12.7632 17.8084C12.1616 17.3916 11.8608 17.1833 11.5253 17.0622C11.4556 17.037 11.385 17.0148 11.3137 16.9955C10.9702 16.9026 10.6099 16.9026 9.88932 16.9026C7.8724 16.9026 6.86393 16.9026 6.10011 16.2673C5.9607 16.1513 5.79436 15.9803 5.68099 15.8364C5.05988 15.0478 5.04093 14.1267 5.00304 12.2845C5.00104 12.1878 5 12.0928 5 12C5 11.9072 5.00104 11.8122 5.00304 11.7155Z"
     fill="#1C274C"
     id="path1"
     style="fill:url(#radialGradient2);opacity:1" />
</svg>
